<?xml version="1.0" encoding="utf-8"?>
<!DOCTYPE svg PUBLIC "-//W3C//DTD SVG 1.0//EN" "http://www.w3.org/TR/2001/REC-SVG-20010904/DTD/svg10.dtd">
<svg version="1.0" xmlns="http://www.w3.org/2000/svg" width="341px" height="298px" viewBox="0 0 341 298" preserveAspectRatio="xMidYMid meet">
 <g fill="#000000">
  <path d="M168.25 229.60 c-1.35 -0.50 -4.65 -2.25 -7.25 -3.95 -6.95 -4.45 -13.50 -8.50 -29.90 -18.50 -8.05 -4.90 -16.95 -10.30 -19.75 -12 -2.80 -1.70 -5.80 -3.45 -6.70 -3.85 -0.85 -0.40 -3.45 -1.95 -5.75 -3.45 -5.40 -3.50 -11 -6.90 -14.15 -8.50 -1.35 -0.70 -3.95 -2.15 -5.75 -3.30 -1.80 -1.10 -4.10 -2.50 -5.10 -3.05 -5.30 -2.85 -6.85 -9.85 -3.10 -13.70 1.95 -2.05 11.85 -7.05 13 -6.60 0.60 0.20 0.70 0.80 0.50 2.40 -0.15 1.20 -0.55 4.90 -0.85 8.25 -0.80 8.05 -0.60 8.50 4.45 10.90 2.05 0.95 5.05 2.55 6.55 3.45 5.95 3.60 19.95 11 27.05 14.35 2.35 1.05 4.95 2.35 5.75 2.75 5.05 2.70 10.25 5.20 10.80 5.20 0.35 0 1 0.30 1.40 0.70 1.20 1 7.10 3.25 7.90 2.95 0.35 -0.15 0.65 -0.55 0.65 -0.90 0 -0.70 -2.30 -2.75 -3.05 -2.75 -0.25 0 -1.50 -0.75 -2.80 -1.70 -1.35 -0.95 -4.40 -2.75 -6.90 -4.05 -2.45 -1.30 -6.85 -3.65 -9.75 -5.25 -2.90 -1.60 -6.35 -3.55 -7.75 -4.30 -1.35 -0.75 -3.85 -2.15 -5.50 -3.15 -1.65 -1 -3.80 -2.15 -4.75 -2.55 -2.45 -1 -13.25 -6.80 -16.40 -8.80 -2.60 -1.70 -2.60 -1.70 -2.60 -7.55 0 -3.25 0.25 -7.80 0.55 -10.15 0.60 -4.95 1.75 -20.85 2.45 -33.75 0.25 -4.95 0.70 -10.50 1 -12.35 0.25 -1.85 0.50 -5.10 0.55 -7.25 0.05 -2.15 0.20 -5.15 0.35 -6.65 0.30 -2.55 0.45 -2.75 1.75 -2.90 1.50 -0.20 7.25 2.30 8.30 3.60 0.55 0.65 0.55 2.45 0.10 9.95 -0.30 5 -0.80 13.60 -1.05 19.10 -0.25 5.50 -0.65 13.50 -0.95 17.75 -0.30 4.25 -0.65 10.70 -0.85 14.35 -0.35 7.55 -1.20 6.30 8.55 12.25 9.20 5.60 11.45 7.05 17.05 11.25 3.05 2.25 7.70 5.50 10.25 7.20 4.75 3.15 5.25 3.50 12 9.05 5 4.15 13.35 12.95 18.15 19.15 3.75 4.85 6.70 7.25 8.85 7.25 1.50 0 3.65 -2.25 8.90 -9.15 5.80 -7.65 9.65 -11.65 16.35 -17.15 2.70 -2.20 6.60 -5.45 8.80 -7.30 2.15 -1.85 5.10 -4.15 6.55 -5.15 1.40 -1 6 -4.15 10.10 -7.05 4.15 -2.85 8.65 -5.90 10 -6.70 9.55 -5.80 11.45 -7.25 11.90 -9 0.25 -0.95 0.30 -2.50 0.15 -3.50 -1.10 -7.05 -2.30 -20.05 -2.60 -28 -0.15 -3.45 -0.45 -7.05 -0.70 -8 -0.25 -0.95 -0.75 -5.90 -1.05 -11 -0.30 -5.10 -0.70 -10.55 -0.80 -12.10 -0.25 -2.85 -0.25 -2.85 2.05 -4.35 2.55 -1.60 7.25 -3.30 7.75 -2.80 0.15 0.20 0.45 2.05 0.65 4.15 0.20 2.10 0.55 5.55 0.85 7.60 0.75 6 1.55 14.40 1.90 20.55 0.15 3.15 0.45 5.95 0.65 6.20 0.20 0.30 0.55 2.55 0.75 5 0.15 2.50 0.65 7.45 1.05 11 0.35 3.60 0.70 7.70 0.70 9.15 0 1.45 0.20 3.05 0.45 3.55 0.30 0.50 0.60 3.30 0.70 6.20 0.20 5.40 0.20 5.40 -1.60 6.80 -2 1.55 -2.90 2.05 -12.55 6.80 -9 4.40 -16.95 8.65 -21 11.25 -1.25 0.80 -3.35 2 -4.75 2.70 -1.35 0.70 -3.75 2.10 -5.25 3.05 -1.50 0.95 -3.95 2.30 -5.40 2.95 -2.90 1.40 -8.60 5.60 -8.60 6.35 0 1.35 2.15 0.70 8.85 -2.65 7.15 -3.55 19.05 -9.75 21.65 -11.20 0.70 -0.35 2.60 -1.30 4.25 -2.10 3.50 -1.70 11.25 -5.75 12.90 -6.80 0.60 -0.40 1.65 -0.85 2.35 -1.05 0.70 -0.20 1.85 -0.80 2.55 -1.30 0.70 -0.50 3.35 -1.95 5.90 -3.20 2.95 -1.45 4.80 -2.70 5.10 -3.45 0.40 -0.85 0.35 -2.95 -0.25 -7.70 -1 -8.35 -1 -10.05 0 -10.45 0.85 -0.30 1.25 -0.15 6.30 2.30 6.70 3.25 9.05 6.70 7.95 11.70 -0.60 2.55 -3.05 4.90 -8.25 7.90 -1.95 1.10 -5.85 3.35 -8.70 4.95 -2.80 1.60 -7.30 4.30 -9.95 6.05 -2.65 1.70 -8 5 -11.85 7.25 -3.90 2.30 -8.40 5 -10 6.05 -1.65 1.05 -3.90 2.45 -5 3.10 -1.15 0.65 -4.85 2.90 -8.30 5.05 -3.45 2.10 -7.35 4.50 -8.75 5.25 -1.35 0.75 -4.80 2.85 -7.60 4.70 -4.60 3 -10 6.45 -16.15 10.35 -5.20 3.30 -11 4.10 -16.25 2.30z"/>
  <path d="M166.50 196.75 c-7.80 -8.65 -19.75 -20.20 -27.40 -26.55 -9.50 -7.90 -15.70 -13 -19.65 -16.05 -2.05 -1.55 -4 -3.15 -4.40 -3.50 -0.40 -0.40 -1.25 -1.05 -1.90 -1.50 -2.30 -1.50 -2.55 -2.75 -2.10 -10.65 0.20 -4 0.40 -11.50 0.45 -16.75 0 -5.20 0.20 -10.95 0.50 -12.75 0.25 -1.80 0.70 -13.05 1 -25 0.35 -11.95 0.75 -23 0.95 -24.50 0.35 -3.20 1.10 -3.60 3.40 -1.90 0.85 0.65 3.25 2.35 5.25 3.80 2 1.45 4 2.90 4.40 3.25 0.40 0.35 2.25 1.65 4.10 3 1.80 1.30 3.60 2.65 4 3 0.35 0.30 3.45 2.60 6.90 5.05 11.40 8.20 26.95 21.95 29.95 26.55 1.30 2 1.30 2 1.40 40 0.10 22.10 0.35 39.15 0.65 40.75 0.25 1.50 0.50 6.70 0.55 11.50 0.05 11.40 0.20 11.35 -8.05 2.25z"/>
  <path d="M177.85 175.65 c-0.55 -43.30 -0.45 -71.55 0.25 -72.80 2.45 -4.70 17.30 -18.70 30.35 -28.65 2.85 -2.15 6.30 -4.80 7.65 -5.85 1.35 -1.05 4.40 -3.35 6.80 -5.20 2.40 -1.85 5.05 -3.90 5.85 -4.60 2.55 -2.20 5.15 -3.35 5.85 -2.65 1 1 1.45 5.35 1.85 17.35 0.50 14.15 2 41.30 3.05 56 0.25 3.05 0.45 8.45 0.45 12.10 0.05 6.60 0.05 6.60 -4.30 9.95 -2.45 1.90 -5.90 4.75 -7.80 6.35 -1.85 1.65 -4.25 3.65 -5.30 4.55 -12.50 9.95 -31.25 27.55 -37.30 35 -1.85 2.25 -5.95 5.80 -6.75 5.80 -0.20 0 -0.50 -12.30 -0.65 -27.35z"/>
 </g>
</svg>